<svg id="Layer_2" data-name="Layer 2" xmlns="http://www.w3.org/2000/svg" width="99.081" height="60.632" viewBox="0 0 99.081 60.632">
  <g id="Layer_1" data-name="Layer 1">
    <path id="Path_9175" data-name="Path 9175" d="M15.944,33.987,9.339,35.445,7.653,25.07,0,27.587,2.278,41.435l14.5-2.517Z" transform="translate(0 3.481)"/>
    <path id="Path_9176" data-name="Path 9176" d="M73.083,22.255l-6.617,1.458c-.934-5.751-1.845-11.3-2.779-17.083L56,9.181l3.815,23.495,14.5-2.517Z" transform="translate(7.776 0.921)"/>
    <path id="Path_9177" data-name="Path 9177" d="M21.539,20.5,14,22.971c.888,5.489,1.754,10.785,2.654,16.263L24.375,37.9C23.43,32.025,22.507,26.365,21.539,20.5Z" transform="translate(1.944 2.847)"/>
    <path id="Path_9178" data-name="Path 9178" d="M32.644,34.021c.353-.854.524-1.287.866-2.141,1.412,1.617,2.426,2.79,3.815,4.442l9.111-1.572c-2.87-3.542-5.626-6.833-8.644-10.25,1.469-3.474,2.767-6.708,4.123-10.25L33.328,17.1c-.82,2.2-1.515,4.02-2.38,6.207L30.1,18.156,22.44,20.673c.979,5.979,1.925,11.742,2.893,17.721l7.778-1.344Z" transform="translate(3.116 1.979)"/>
    <path id="Path_9179" data-name="Path 9179" d="M58.777,25.589l-7.665,1.686-.342-2.1L57.911,23.5l-.831-5.068-7.1,1.891-.285-1.72,7.448-2.084c-.114-.706-.945-5.8-1.139-7.084L41.09,14.348l3.417,20.932,15.42-2.654Z" transform="translate(5.706 1.311)"/>
    <path id="Path_9180" data-name="Path 9180" d="M75.932,30.544l7.87-1.367L81.968,17.9C83.084,11.867,84.132,6.047,85.111,0L77.663,2.449c-.319,2.2-.581,4.02-.911,6.207L74.087,3.622,66.65,6.07c2.585,4.555,5,8.974,7.505,13.6C74.759,23.392,75.317,26.82,75.932,30.544Z" transform="translate(9.255)"/>
    <path id="Path_9181" data-name="Path 9181" d="M10.909,44.474c0-.74,1.9-.706,2.665-.717a8.1,8.1,0,0,1,3.667.717c-.307-1.845-.524-3.166-.82-5.011-3.906-.82-10.056.182-12.8,3.257a3.314,3.314,0,0,0,.171,4.555c2,1.868,5.341,1.492,7.767,2.13.683.194,1.139.786.3,1.139a11.571,11.571,0,0,1-7.482-.752l.74,4.555c3.724.991,9.2,1.321,12.8-.2,2.972-1.219,3.257-4.259,1.492-6.583C17.036,44.486,11.217,45.67,10.909,44.474Z" transform="translate(0.388 5.442)"/>
    <path id="Path_9182" data-name="Path 9182" d="M17.563,44.017l4.111-.444c.638,3.952,1.241,7.6,1.879,11.548l8.052-.068c-.683-4.168-1.321-8.1-2.039-12.266l4.282-.467c-.353-2.2-.615-3.792-.979-5.99L16.72,38.858C17.039,40.749,17.244,42.127,17.563,44.017Z" transform="translate(2.322 5.045)"/>
    <path id="Path_9183" data-name="Path 9183" d="M64.845,31.262,53.57,33.016l3.667,22.493,7.972-.068c-.478-2.961-.911-5.592-1.389-8.553,1.629,2.938,3.052,5.558,4.658,8.519l8.063-.068c-1.788-3.2-3.417-6.127-5.284-9.293,3.234-2.46,3.519-7.232,1.674-10.614A7.63,7.63,0,0,0,64.845,31.262ZM64.765,41.8l-1.731.159-.581-3.542,1.72-.2C66.052,37.959,66.587,41.523,64.765,41.8Z" transform="translate(7.439 4.327)"/>
    <path id="Path_9184" data-name="Path 9184" d="M42.912,34.345c-4.282.683-8.621,3.417-9.84,7.744a10.25,10.25,0,0,0,1.139,7.494,12.436,12.436,0,0,0,9.475,5.888c5.216.74,11.389-1.549,12.71-7.084a11.924,11.924,0,0,0-2.13-9.851,11.764,11.764,0,0,0-11.354-4.191ZM45.19,48.1c-4.35.262-5.694-5.6-1.025-6.275a3.417,3.417,0,0,1,3.713,4.555,3,3,0,0,1-2.722,1.72Z" transform="translate(4.556 4.741)"/>
    <path id="Path_9185" data-name="Path 9185" d="M80.7,34.654c-.991-1.959-1.72-3.417-2.71-5.318l-7.653,1.2c2.619,4.84,5.1,9.532,7.642,14.418.6,3.713,1.139,7.129,1.777,10.842l8.086-.068c-.626-3.849-1.207-7.4-1.845-11.263,1.139-5.694,2.278-11.172,3.314-16.889l-7.642,1.2C81.341,30.93,81.057,32.49,80.7,34.654Z" transform="translate(9.768 3.828)"/>
  </g>
</svg>
